<?xml version="1.0" encoding="UTF-8"?>
<!-- Generator: Adobe Illustrator 27.5.0, SVG Export Plug-In . SVG Version: 6.00 Build 0)  -->
<svg version="1.1" id="Layer_1" xmlns="http://www.w3.org/2000/svg" xmlns:xlink="http://www.w3.org/1999/xlink" x="0px" y="0px" viewBox="0 0 797.3 185.2" style="enable-background:new 0 0 797.3 185.2;" xml:space="preserve">
<g>
	<path d="M243.2,78.4l11.9-38.6h15.6l11.8,38.6l13.3-38.6H312l-23.4,67.1h-11.1l-14.7-46.7l-14.6,46.7h-11.1l-23.4-67.1h16.2   L243.2,78.4z"/>
	<path d="M320.1,39.8h15v67.1h-15V39.8z"/>
	<path d="M351.6,39.8h15v27.6l25.3-27.6h18.5l-26.7,29.7c2.3,3.2,6.6,9.2,12.8,17.9c6.2,8.7,10.8,15.2,13.9,19.5h-17.5l-19.7-26.5   l-6.7,7.5v19h-15V39.8H351.6z"/>
	<path d="M419.7,39.8h15v67.1h-15V39.8z"/>
	<path d="M511.3,64.7l-18.1,36.7h-8.9l-18-36.7v42.2h-15V39.8h20.3l17.3,36.9l17.4-36.9h20.2v67.1h-15V64.7H511.3z"/>
	<path d="M591.2,39.8v13.3h-33.4V67h30v12.8h-30v13.9h34.5v13.2h-49.4V39.8H591.2z"/>
	<path d="M656.8,48.6c6.4,5.9,9.6,14,9.6,24.4s-3.1,18.7-9.4,24.8c-6.2,6.1-15.8,9.1-28.6,9.1h-22.9V39.8h23.7   C641.3,39.8,650.4,42.8,656.8,48.6z M645.9,88.5c3.7-3.5,5.5-8.5,5.5-15.1s-1.8-11.7-5.5-15.2c-3.7-3.6-9.3-5.3-16.9-5.3h-8.4v40.8   h9.5C636.9,93.7,642.2,92,645.9,88.5z"/>
	<path d="M679.4,39.8h15v67.1h-15V39.8z"/>
	<path d="M758.7,106.9l-6.2-14.5h-28.1l-6.2,14.5h-15.9l29-67.1h14.5l29,67.1H758.7z M738.4,59.8L730,79.3h16.8L738.4,59.8z"/>
</g>
<g>
	<path d="M108.3,144.4c25.3-3.6,44.7-25.3,44.7-51.5c0-16-7.2-30.2-18.5-39.8l-26.2,26.2V144.4z"/>
	<path d="M93.6,144.4V79.3L67.4,53c-11.3,9.5-18.5,23.8-18.5,39.8C48.9,119.1,68.3,140.8,93.6,144.4z"/>
	<path d="M146.2,47.6c12.1,12.1,18.7,28.2,18.7,45.2s-6.7,33.2-18.7,45.2c-12.1,12.1-28.2,18.7-45.2,18.7S67.8,150,55.8,138   S37,109.9,37,92.8s6.7-33.2,18.7-45.2c1-1,2.1-2,3.2-3L44.3,30c-1.1,1-2.1,2-3.2,3C33.3,40.8,27.2,49.8,23,59.9   c-4.4,10.4-6.7,21.5-6.7,32.9s2.2,22.5,6.7,32.9c4.3,10.1,10.4,19.1,18.1,26.9c7.8,7.8,16.8,13.9,26.9,18.1   c10.4,4.4,21.5,6.7,32.9,6.7s22.5-2.2,32.9-6.7c10.1-4.3,19.1-10.4,26.9-18.1c7.8-7.8,13.9-16.8,18.1-26.9   c4.4-10.4,6.7-21.5,6.7-32.9s-2.2-22.5-6.7-32.9c-4.3-10.1-10.4-19.1-18.1-26.9c-1-1-2.1-2-3.2-3L143,44.6   C144.1,45.5,145.1,46.5,146.2,47.6z"/>
	<circle id="red_circle_3_" cx="100.9" cy="34.1" r="26.4"/>
</g>
<g>
	<path d="M256.7,132.9v4.4h-15.8v7.9H255v4.4h-14.2v8h16.3v4.4h-21.2v-29H256.7z"/>
	<path d="M302,157.8c4.7,0,7.7-2.9,7.7-7.8v-17h4.9v17c0,7.6-4.8,12.2-12.6,12.2s-12.6-4.6-12.6-12.2v-17h4.9v17   C294.2,154.8,297.2,157.8,302,157.8z"/>
	<path d="M366.8,162l-5.3-8.8c-0.4,0-0.9,0-1.3,0h-6.9v8.8h-4.9v-29h11.8c7.4,0,11.7,3.6,11.7,9.9c0,4.6-2.2,7.9-6,9.4l6.5,9.7   H366.8z M360.1,148.8c4.5,0,7.1-1.9,7.1-5.8c0-3.8-2.6-5.6-7.1-5.6h-6.9v11.5H360.1z"/>
	<path d="M433.4,147.5c0,8.3-6.7,14.7-15.4,14.7s-15.4-6.4-15.4-14.7c0-8.3,6.7-14.6,15.4-14.6S433.4,139.2,433.4,147.5z    M407.6,147.5c0,5.8,4.8,10.3,10.5,10.3c5.7,0,10.3-4.6,10.3-10.3s-4.6-10.2-10.3-10.2C412.4,137.2,407.6,141.7,407.6,147.5z"/>
	<path d="M488.5,142.9c0,6.6-4.2,10.4-11.5,10.4h-6.7v8.8h-4.9v-29H477C484.3,132.9,488.5,136.5,488.5,142.9z M483.8,143   c0-3.8-2.5-5.6-7-5.6h-6.5v11.5h6.5C481.3,148.8,483.8,146.9,483.8,143z"/>
	<path d="M540.8,132.9v4.4H525v7.9h14.2v4.4H525v8h16.3v4.4h-21.2v-29H540.8z"/>
</g>
</svg>