<?xml version="1.0" encoding="utf-8"?>
<!-- Generator: Adobe Illustrator 27.3.1, SVG Export Plug-In . SVG Version: 6.00 Build 0)  -->
<svg version="1.1" id="Ebene_2" xmlns="http://www.w3.org/2000/svg" xmlns:xlink="http://www.w3.org/1999/xlink" x="0px" y="0px"
	 viewBox="0 0 587.7 166.1" style="enable-background:new 0 0 587.7 166.1;" xml:space="preserve">
<style type="text/css">
	.st0{enable-background:new    ;}
	.st1{fill:#03D1FF;}
	.st2{fill:#00D1FF;}
	.st3{display:none;enable-background:new    ;}
	.st4{font-family:'HKGrotesk-Bold';}
	.st5{font-size:18.1px;}
</style>
<g>
	<g>
		<g>
			<g>
				<g class="st0">
					<path d="M166.4,84.4c0-11.8,7.2-19.5,17.9-19.5s17.9,7.8,17.9,19.5s-7.2,19.5-17.9,19.5C173.6,103.8,166.4,96.1,166.4,84.4z
						 M195.4,84.4c0-8.1-4.3-13.2-11.2-13.2s-11.2,5-11.2,13.2c0,8.1,4.3,13.1,11.2,13.1S195.4,92.4,195.4,84.4z"/>
				</g>
				<g class="st0">
					<path d="M234.4,89.8c0,8.6-4.7,13.7-11.2,13.7c-3,0-6-1.2-7.6-3.2v13.6h-6.4V76.6h6.4v2.6c1.8-2.3,4.8-3.2,7.6-3.2
						C230.5,76,234.4,81.9,234.4,89.8z M228,89.8c0-5.2-2-8.1-6.3-8.1c-4.7,0-6.7,3.4-6.7,8.1c0,4.6,2,8.2,6.6,8.2
						C225.9,97.9,228,94.9,228,89.8z"/>
				</g>
				<g class="st0">
					<path d="M263.5,91.9h-18.1c0.3,3.5,2.4,5.8,6.6,5.8c2.4,0,4.5-0.8,6.3-2.8l4.5,3.9c-2.9,3.2-6.4,4.8-10.8,4.8
						c-9.1,0-13-6.6-13-13.6c0-6.9,3.8-13.9,12.6-13.9c8.2,0,12.2,6.1,12.2,13.4C263.6,90.3,263.6,91.1,263.5,91.9z M257.4,86.8
						c-0.1-3.4-2.7-5.4-6.1-5.4c-3.9,0-5.7,2.8-6.1,5.4H257.4z"/>
				</g>
				<g class="st0">
					<path d="M294.8,86v17.1h-6.4V87.6c0-1.8,0-5.9-4.9-5.9c-6,0-6,6.1-6,10.8v10.6H271V76.6h6.4v3.1c1.9-2.5,4.8-3.6,8-3.6
						C291.4,76,294.8,79.7,294.8,86z"/>
				</g>
				<g class="st0">
					<path d="M343.1,103L332,84.4l-7.1,7.2V103h-6.7V65.6h6.7v17.6l16.8-17.6h8.8l-13.9,14.2l14.3,23.3L343.1,103L343.1,103z"/>
					<path d="M379.3,86v17.1h-6.4V87.6c0-1.8,0-5.9-4.9-5.9c-6,0-6,6.1-6,10.8v10.6h-6.4V76.6h6.4v3.1c1.9-2.5,4.8-3.6,8-3.6
						C375.9,76,379.3,79.7,379.3,86z"/>
				</g>
				<g class="st0">
					<path d="M381.9,89.8c0-7.5,5-13.7,13.3-13.7c8.2,0,13.3,6.2,13.3,13.7s-5.1,13.8-13.3,13.8S381.9,97.2,381.9,89.8z M402,89.8
						c0-4.3-1.9-8.1-6.8-8.1s-6.8,3.8-6.8,8.1c0,4.3,1.9,8.2,6.8,8.2S402,94.1,402,89.8z"/>
				</g>
				<g class="st0">
					<path d="M411.3,76.6h6.9l4.5,16.6l5-16.6h5.5l5,16.5l4.6-16.5h6.9l-8.2,26.5h-5.8l-5.2-17.3l-5.2,17.3h-5.8L411.3,76.6z"/>
				</g>
				<g class="st0">
					<path d="M455.7,96.7V65.6h6.4v30.7c0,1.2,0.7,1.7,1.9,1.7c0.6,0,1.3-0.1,2-0.3v5.2c-1.4,0.5-2.9,0.8-4.1,0.8
						C458.3,103.6,455.7,101.4,455.7,96.7z"/>
				</g>
				<g class="st0">
					<path d="M493.7,91.9h-18.1c0.3,3.5,2.4,5.8,6.6,5.8c2.4,0,4.5-0.8,6.3-2.8l4.5,3.9c-2.9,3.2-6.4,4.8-10.8,4.8
						c-9.1,0-13-6.6-13-13.6c0-6.9,3.8-13.9,12.6-13.9c8.2,0,12.2,6.1,12.2,13.4C493.9,90.3,493.8,91.1,493.7,91.9z M487.7,86.8
						c-0.1-3.4-2.7-5.4-6.1-5.4c-3.9,0-5.7,2.8-6.1,5.4H487.7z"/>
				</g>
				<g class="st0">
					<path d="M524.3,65.6V103h-6.4v-2.6c-1.8,2.3-4.8,3.2-7.6,3.2c-7.2,0-11.2-5.9-11.2-13.8c0-8.6,4.7-13.7,11.2-13.7
						c3,0,6,1.2,7.6,3.2V65.6H524.3z M518.5,89.8c0-4.4-2-7.9-6.6-7.9c-4.3,0-6.3,3-6.3,7.9c0,4.9,2,7.8,6.3,7.8
						C516.5,97.6,518.5,94.2,518.5,89.8z"/>
				</g>
				<g class="st0">
					<path d="M555.6,106.6c0,5.5-5,7.9-12.2,7.9c-7.9,0-12.4-2.9-12.4-8.4c0-0.6,0.1-0.9,0.1-1.2l3.8-2.4c-1.9-1-3.2-2.7-3.2-5.4
						c0-2.3,0.9-4,2.5-5.3c-1.3-1.7-2.1-3.8-2.1-6.1c0-5.7,4.9-9.7,10.8-9.7c2.3,0,4.5,0.6,6.2,1.7l4-3.4l3.4,4.1l-3.8,3.1
						c0.7,1.3,1.1,2.9,1.1,4.6c0,5.9-4.9,9.7-10.7,9.7c-1.8,0-3.5-0.4-5.1-1c-0.5,0.3-0.8,0.8-0.8,1.4c0,1.9,2.7,2.5,6,2.9
						C548.6,99.7,555.6,100.3,555.6,106.6z M549.1,107.2c0-2-3.4-2.3-7.2-2.8l-2.2-0.3l-2.3,2.2c-0.1,0.2-0.1,0.3-0.1,0.4
						c0,2.3,3.3,3,6.3,3C546.4,109.7,549.1,109.1,549.1,107.2z M538.5,85.9c0,2.5,1.5,4.6,4.5,4.6s4.4-2,4.4-4.6
						c0-2.7-1.7-4.5-4.4-4.5S538.5,83.2,538.5,85.9z"/>
				</g>
				<g class="st0">
					<path d="M583.4,91.9h-18.1c0.3,3.5,2.4,5.8,6.6,5.8c2.4,0,4.5-0.8,6.3-2.8l4.5,3.9c-2.9,3.2-6.4,4.8-10.8,4.8
						c-9.1,0-13-6.6-13-13.6c0-6.9,3.8-13.9,12.6-13.9c8.2,0,12.2,6.1,12.2,13.4C583.6,90.3,583.5,91.1,583.4,91.9z M577.4,86.8
						c-0.1-3.4-2.7-5.4-6.1-5.4c-3.9,0-5.7,2.8-6.1,5.4H577.4z"/>
				</g>
			</g>
		</g>
	</g>
	<g>
		<path class="st1" d="M103.1,63c4.2,4.2,7,9.7,7.9,15.6l12.1-12.1l30.4-30.4L130,12.6L99.6,42.9V0H66.4v60.1
			C77.7,52,93.2,53.2,103.1,63z"/>
		<path class="st2" d="M111,87.5c-2.4,15.4-16.9,26-32.3,23.5c-4.4-0.7-8.6-2.4-12.2-5.1V166h33.2v-42.9l30.4,30.4l23.5-23.5
			l-30.4-30.4C123.2,99.6,111,87.5,111,87.5z"/>
		<path d="M111,87.5c-2.5,15.4-17,26-32.5,23.5c-15.4-2.5-26-17-23.5-32.5c1-5.9,3.8-11.4,7.9-15.6c1.1-1.1,2.2-2,3.4-2.9
			c12.6-9.2,30.3-6.4,39.5,6.2c2.6,3.6,4.4,7.8,5.1,12.3L123,66.4L153.4,36L130,12.6L99.6,42.9V0H66.4v42.9L36.1,12.6L12.6,36.1
			L43,66.5H0v33.2h42.9L12.6,130l23.5,23.5l30.4-30.4V166h33.2v-42.9l30.4,30.4l23.5-23.5l-30.4-30.4L111,87.5z M104.2,47.4
			l25.9-25.9L144.6,36l-25.9,26l-4.9,4.9c-1.7-3.1-3.7-5.9-6.2-8.4s-5.3-4.6-8.3-6.2L104.2,47.4L104.2,47.4z M93.3,6.4V50
			c-6.7-2-13.8-2-20.5,0V6.3C72.8,6.3,93.3,6.3,93.3,6.4z M21.6,36.1l14.5-14.5l24,24V57c-0.6,0.5-1.1,1-1.6,1.5
			c-2.5,2.5-4.6,5.3-6.2,8.4L47.4,62L21.6,36.1z M6.4,93.3V72.8H50c-2,6.7-2,13.8,0,20.5C49.9,93.3,6.3,93.3,6.4,93.3z M60.1,120.5
			l-24.1,24L21.5,130l25.9-25.8l4.9-4.9c1.7,3.1,3.7,5.9,6.2,8.3c0.5,0.5,1,1,1.6,1.5L60.1,120.5L60.1,120.5z M93.3,123.1v36.6H72.7
			v-43.6c6.7,2,13.8,2,20.5,0L93.3,123.1L93.3,123.1z M130,144.5l-25.8-25.9l-4.9-4.9c6.2-3.3,11.2-8.3,14.5-14.5l4.9,4.9l25.9,25.9
			L130,144.5L130,144.5z"/>
	</g>
</g>
<text transform="matrix(1 0 0 1 573.11 119.88)" class="st3 st4 st5">E</text>
</svg>
